<svg width="467" height="474" viewBox="0 0 467 474" fill="none" xmlns="http://www.w3.org/2000/svg">
<path opacity="0.3" d="M186.878 24.9999H86.9781C79.2582 24.9999 73 31.2558 73 38.9728C73 46.6898 79.2582 52.9457 86.9781 52.9457H186.878C194.598 52.9457 200.856 46.6898 200.856 38.9728C200.856 31.2558 194.598 24.9999 186.878 24.9999Z" stroke="black" stroke-miterlimit="10"/>
<path d="M92.4334 43.6482H88.8814V33.8722H92.4334C93.1908 33.8935 93.8254 34.1602 94.3374 34.6722C94.8494 35.1842 95.1054 35.8082 95.1054 36.5442C95.1054 36.8002 95.0468 37.0882 94.9294 37.4082C94.8121 37.7282 94.6681 37.9948 94.4974 38.2082C94.3268 38.4215 94.1294 38.6028 93.9054 38.7522C94.2468 38.9868 94.5294 39.3175 94.7534 39.7442C94.9881 40.1708 95.1054 40.5815 95.1054 40.9762C95.1054 41.7122 94.8494 42.3362 94.3374 42.8482C93.8254 43.3602 93.1908 43.6268 92.4334 43.6482ZM92.4334 42.7522C92.9348 42.7415 93.3561 42.5655 93.6974 42.2242C94.0388 41.8828 94.2094 41.4668 94.2094 40.9762C94.2094 40.4855 94.0334 40.0695 93.6814 39.7282C93.3401 39.3762 92.9241 39.2002 92.4334 39.2002H89.7614L90.2094 38.3202H92.4334C92.9134 38.2775 93.3134 38.0908 93.6334 37.7602C93.9641 37.4188 94.1294 37.0082 94.1294 36.5282C94.1294 36.0588 93.9641 35.6588 93.6334 35.3282C93.3134 34.9868 92.9134 34.7948 92.4334 34.7522H89.7614V42.7522H92.4334ZM107.856 42.7522C108.613 42.7415 109.248 42.4802 109.76 41.9682C110.272 41.4562 110.528 40.8322 110.528 40.0962C110.528 39.3602 110.267 38.7308 109.744 38.2082C109.221 37.6855 108.592 37.4242 107.856 37.4242C107.12 37.4242 106.491 37.6855 105.968 38.2082C105.445 38.7308 105.184 39.3602 105.184 40.0962C105.184 40.8322 105.445 41.4615 105.968 41.9842C106.491 42.4962 107.12 42.7522 107.856 42.7522ZM107.856 43.6482C106.875 43.6482 106.043 43.3068 105.36 42.6242C104.688 41.9415 104.336 41.0935 104.304 40.0802C104.304 39.0988 104.651 38.2615 105.344 37.5682C106.037 36.8748 106.875 36.5282 107.856 36.5282C108.837 36.5282 109.675 36.8748 110.368 37.5682C111.072 38.2615 111.424 39.0988 111.424 40.0802C111.424 41.0615 111.072 41.9042 110.368 42.6082C109.675 43.3015 108.837 43.6482 107.856 43.6482ZM124.372 42.7522C125.129 42.7415 125.764 42.4802 126.276 41.9682C126.788 41.4562 127.044 40.8322 127.044 40.0962C127.044 39.3602 126.782 38.7308 126.26 38.2082C125.737 37.6855 125.108 37.4242 124.372 37.4242C123.636 37.4242 123.006 37.6855 122.484 38.2082C121.961 38.7308 121.7 39.3602 121.7 40.0962C121.7 40.8322 121.961 41.4615 122.484 41.9842C123.006 42.4962 123.636 42.7522 124.372 42.7522ZM124.372 43.6482C123.39 43.6482 122.558 43.3068 121.876 42.6242C121.204 41.9415 120.852 41.0935 120.82 40.0802C120.82 39.0988 121.166 38.2615 121.86 37.5682C122.553 36.8748 123.39 36.5282 124.372 36.5282C125.353 36.5282 126.19 36.8748 126.884 37.5682C127.588 38.2615 127.94 39.0988 127.94 40.0802C127.94 41.0615 127.588 41.9042 126.884 42.6082C126.19 43.3015 125.353 43.6482 124.372 43.6482ZM138.167 43.6482H137.271V33.8722H138.167V43.6482ZM142.599 43.6482H141.719V40.9762C141.719 40.4855 141.549 40.0695 141.207 39.7282C140.866 39.3868 140.445 39.2108 139.943 39.2002H138.167L138.615 38.3202H140.855C140.962 38.3095 141.053 38.2722 141.127 38.2082C141.213 38.1442 141.266 38.0588 141.287 37.9522L142.183 33.8722H143.047C142.439 36.7735 142.125 38.2508 142.103 38.3042C142.018 38.5602 141.869 38.7682 141.655 38.9282L141.863 39.1362C142.077 39.3602 142.253 39.6482 142.391 40.0002C142.53 40.3522 142.599 40.6775 142.599 40.9762V43.6482ZM153.25 43.6482H152.354V36.9762L153.25 36.5282V43.6482ZM153.458 35.2002H152.13V33.8722H153.458V35.2002ZM168.762 43.6482H167.882V39.6322C167.882 39.0242 167.663 38.5068 167.226 38.0802C166.799 37.6428 166.276 37.4242 165.658 37.4242C165.391 37.4242 165.076 37.4935 164.714 37.6322C164.372 37.8028 164.09 38.0322 163.866 38.3202L163.434 37.4562C163.498 37.3922 163.583 37.3175 163.69 37.2322C163.924 37.0508 164.143 36.9122 164.346 36.8162C164.751 36.6242 165.178 36.5282 165.626 36.5282H165.642C165.93 36.5282 166.255 36.5868 166.618 36.7042C167.055 36.8535 167.412 37.0562 167.69 37.3122C168.095 37.6642 168.394 38.1175 168.586 38.6722C168.703 39.0242 168.762 39.3495 168.762 39.6482V43.6482ZM163.418 43.6482H162.538V36.5442H163.418V43.6482ZM181.652 47.2002C181.087 47.2002 180.506 47.0295 179.908 46.6882C179.322 46.3468 178.879 45.9255 178.58 45.4242L178.516 45.3442L179.316 44.9442L179.348 44.9922C179.572 45.3655 179.903 45.6802 180.34 45.9362C180.788 46.1922 181.22 46.3202 181.636 46.3202C182.372 46.3202 183.002 46.0588 183.524 45.5362C184.047 45.0135 184.308 44.3842 184.308 43.6482V42.4322C183.978 42.8055 183.53 43.1095 182.964 43.3442C182.506 43.5362 182.068 43.6375 181.652 43.6482C181.258 43.6482 180.82 43.5522 180.34 43.3602C179.871 43.1682 179.487 42.9282 179.188 42.6402C178.943 42.4055 178.735 42.1442 178.564 41.8562C178.436 41.6215 178.324 41.3388 178.228 41.0082C178.143 40.6668 178.1 40.3682 178.1 40.1122C178.1 39.1308 178.447 38.2935 179.14 37.6002C179.834 36.9068 180.671 36.5602 181.652 36.5602C182.1 36.5602 182.575 36.6775 183.076 36.9122C183.588 37.1362 183.999 37.4135 184.308 37.7442C184.564 38.0428 184.778 38.4162 184.948 38.8642C185.119 39.3015 185.204 39.7122 185.204 40.0962V43.6482C185.183 44.6615 184.831 45.5042 184.148 46.1762C183.466 46.8588 182.634 47.2002 181.652 47.2002ZM181.652 42.7682C181.919 42.7682 182.228 42.6988 182.58 42.5602C183.135 42.3362 183.562 42.0002 183.86 41.5522L184.308 42.4322V40.0802C184.308 39.3442 184.047 38.7202 183.524 38.2082C183.002 37.6855 182.372 37.4242 181.636 37.4242C180.9 37.4242 180.271 37.6855 179.748 38.2082C179.236 38.7202 178.98 39.3495 178.98 40.0962C178.98 40.2348 178.996 40.4002 179.028 40.5922C179.071 40.7842 179.119 40.9495 179.172 41.0882C179.226 41.2162 179.295 41.3548 179.38 41.5042C179.476 41.6428 179.567 41.7602 179.652 41.8562C179.887 42.1122 180.196 42.3308 180.58 42.5122C180.964 42.6828 181.322 42.7682 181.652 42.7682Z" fill="#ADAAA7"/>
<path opacity="0.3" d="M67.8185 218.917C72.5348 207.53 67.1278 194.477 55.7417 189.76C44.3555 185.044 31.3018 190.451 26.5855 201.837C21.8692 213.224 27.2762 226.277 38.6624 230.993C50.0486 235.71 63.1022 230.303 67.8185 218.917Z" stroke="black" stroke-miterlimit="10"/>
<g opacity="0.2">
<path d="M150.262 171.495C156.156 141.955 172.432 115.501 196.142 96.9234C219.853 78.3455 249.432 68.8711 279.524 70.2153C309.616 71.5596 338.232 83.6336 360.192 104.252C382.152 124.87 396.004 152.669 399.24 182.617L387.99 182.849L407.06 214.368L424.819 182.101L414.063 182.284C413.076 172.389 411.04 162.628 407.991 153.163C384.269 79.1961 304.795 38.3117 230.828 62.0339C206.214 69.9496 184.251 84.4793 167.338 104.035C150.425 123.591 139.213 147.419 134.928 172.917L146.285 159.942L150.262 171.495Z" fill="black"/>
<path d="M414.436 205.718L406.667 219.829L399.438 207.882C396.463 240.002 381.291 269.761 357.043 291.035C332.796 312.31 301.317 323.483 269.083 322.255C236.848 321.027 206.311 307.492 183.752 284.435C161.193 261.377 148.329 230.551 147.806 198.297L156.696 200.042L144.769 165.197L120.553 192.946L133.013 195.397C132.918 210.271 135.189 225.066 139.741 239.227C163.463 313.193 242.937 354.078 316.914 330.352C343.765 321.706 367.408 305.209 384.791 282.993C402.175 260.777 412.501 233.861 414.436 205.718Z" fill="black"/>
</g>
<path d="M441.835 43.4849L418.089 38.9535V39.0364C416.907 41.4318 414.978 42.7591 413.184 42.4169L412.147 42.2198C410.353 41.888 409.036 39.9282 408.829 37.2632V37.1803L385.083 32.6488C383.511 32.3466 381.894 32.3575 380.326 32.6809C378.758 33.0044 377.269 33.6339 375.945 34.5335C374.62 35.4332 373.486 36.5852 372.608 37.9237C371.729 39.2623 371.123 40.7609 370.825 42.3339L340.007 198.612C339.66 200.436 340.053 202.322 341.097 203.856C342.141 205.39 343.752 206.447 345.575 206.794L412.572 219.58C413.475 219.753 414.402 219.746 415.302 219.56C416.201 219.374 417.055 219.013 417.815 218.497C418.575 217.98 419.226 217.32 419.73 216.552C420.234 215.784 420.582 214.924 420.754 214.022L451.551 57.7637C451.855 56.1878 451.844 54.5676 451.519 52.9959C451.195 51.4242 450.563 49.9322 449.66 48.6054C448.757 47.2786 447.601 46.1433 446.258 45.2645C444.916 44.3858 443.412 43.781 441.835 43.4849Z" fill="#3D4435" stroke="#263238" stroke-linecap="round" stroke-linejoin="round"/>
<path d="M450.887 61.2271L451.55 57.743C451.851 56.1686 451.838 54.5504 451.512 52.9812C451.186 51.4119 450.553 49.9223 449.651 48.5979C448.748 47.2734 447.593 46.14 446.252 45.2626C444.911 44.3853 443.409 43.7812 441.834 43.4849L418.088 38.9535V39.0364C416.906 41.4318 414.977 42.7591 413.183 42.4169L412.146 42.2198C410.352 41.888 409.036 39.9282 408.828 37.2632V37.1803L385.082 32.6488C383.51 32.3466 381.893 32.3575 380.325 32.6809C378.757 33.0044 377.268 33.6339 375.944 34.5335C374.619 35.4332 373.485 36.5852 372.607 37.9237C371.728 39.2623 371.122 40.7609 370.824 42.3339L370.15 45.8284L450.887 61.2271Z" fill="white" stroke="#263238" stroke-linecap="round" stroke-linejoin="round"/>
<path d="M445.682 111.27L448.575 96.1306L447.206 95.8714L455.844 55.6896C456.445 52.5136 455.762 49.2286 453.945 46.5556C452.127 43.8826 449.323 42.0398 446.148 41.4316L381.857 29.1541C378.681 28.5498 375.395 29.2316 372.721 31.0497C370.047 32.8679 368.205 35.6735 367.599 38.8496L335.91 199.67C335.608 201.242 335.619 202.859 335.942 204.427C336.266 205.995 336.895 207.484 337.795 208.808C338.695 210.133 339.847 211.267 341.185 212.145C342.524 213.024 344.022 213.63 345.595 213.928L409.886 226.206C411.463 226.514 413.085 226.508 414.659 226.188C416.233 225.867 417.728 225.239 419.059 224.339C420.39 223.439 421.53 222.285 422.413 220.943C423.296 219.602 423.906 218.098 424.206 216.52L441.835 123.942L443.203 124.211L444.914 115.242L443.546 114.982L444.302 111.011L445.682 111.27ZM422.05 207.25C421.439 210.425 419.594 213.228 416.919 215.044C414.244 216.86 410.957 217.54 407.781 216.935L350.987 206.099C347.813 205.491 345.01 203.648 343.194 200.974C341.378 198.301 340.698 195.016 341.302 191.841L370.814 42.3337C371.112 40.7607 371.718 39.2621 372.597 37.9236C373.475 36.5851 374.609 35.433 375.934 34.5334C377.258 33.6337 378.747 33.0042 380.315 32.6808C381.883 32.3574 383.5 32.3464 385.072 32.6486L408.818 37.1801V37.2631C409.046 39.928 410.342 41.8879 412.136 42.2197L413.173 42.4167C414.957 42.7589 416.896 41.3797 418.078 39.0362V38.9533L441.835 43.4848C443.412 43.7809 444.915 44.3856 446.258 45.2644C447.601 46.1431 448.757 47.2785 449.66 48.6052C450.562 49.932 451.194 51.4241 451.519 52.9957C451.843 54.5674 451.854 56.1877 451.551 57.7635L422.05 207.25Z" fill="#707070" stroke="#263238" stroke-linecap="round" stroke-linejoin="round"/>
<path d="M443.733 42.7174L383.59 31.2384C380.225 30.5974 376.743 31.3187 373.91 33.2437C371.077 35.1687 369.125 38.1399 368.481 41.5042L337.746 197.575C337.427 199.242 337.44 200.954 337.784 202.615C338.127 204.277 338.795 205.854 339.748 207.257C340.701 208.66 341.922 209.862 343.34 210.793C344.758 211.724 346.345 212.366 348.012 212.684L408.155 224.152C409.821 224.471 411.534 224.458 413.195 224.115C414.856 223.771 416.434 223.104 417.837 222.151C419.24 221.197 420.441 219.977 421.372 218.559C422.304 217.141 422.946 215.553 423.263 213.887L453.998 57.8154C454.639 54.4519 453.918 50.9717 451.992 48.1403C450.067 45.3089 447.096 43.3582 443.733 42.7174ZM422.05 207.25C421.44 210.425 419.594 213.228 416.919 215.044C414.244 216.86 410.958 217.54 407.782 216.935L350.988 206.099C347.814 205.491 345.011 203.648 343.195 200.974C341.379 198.301 340.698 195.016 341.303 191.841L370.814 42.3337C371.113 40.7607 371.719 39.2621 372.597 37.9236C373.476 36.5851 374.61 35.433 375.934 34.5334C377.259 33.6337 378.748 33.0042 380.316 32.6808C381.884 32.3573 383.5 32.3464 385.072 32.6486L408.819 37.1801V37.263C409.047 39.928 410.343 41.8878 412.137 42.2197L413.174 42.4167C414.957 42.7589 416.896 41.3797 418.079 39.0362V38.9533L441.835 43.4847C443.412 43.7809 444.916 44.3856 446.258 45.2644C447.601 46.1431 448.757 47.2784 449.66 48.6052C450.563 49.932 451.195 51.4241 451.519 52.9957C451.844 54.5674 451.855 56.1877 451.551 57.7635L422.05 207.25Z" fill="#263238" stroke="#263238" stroke-linecap="round" stroke-linejoin="round"/>
<path d="M414.232 38.808C414.275 38.5865 414.251 38.3573 414.164 38.1493C414.076 37.9413 413.929 37.7638 413.741 37.6393C413.553 37.5148 413.332 37.4489 413.107 37.4498C412.881 37.4508 412.661 37.5187 412.474 37.6448C412.287 37.7709 412.142 37.9497 412.056 38.1584C411.971 38.3672 411.949 38.5966 411.994 38.8177C412.039 39.0388 412.148 39.2415 412.309 39.4004C412.469 39.5592 412.672 39.667 412.894 39.7101C413.041 39.7402 413.193 39.7406 413.34 39.7113C413.487 39.6821 413.628 39.6238 413.752 39.5398C413.877 39.4558 413.983 39.3478 414.065 39.2221C414.148 39.0965 414.204 38.9557 414.232 38.808Z" fill="#707070"/>
<path d="M379.337 36.6097C379.12 37.7504 377.761 37.9163 377.595 38.777V38.8392L378.829 39.0777L378.757 39.4614L377.098 39.0984L377.16 38.777C377.388 37.5637 378.715 37.5637 378.912 36.5061C378.985 36.1224 378.912 35.8839 378.591 35.832C378.269 35.7802 378.104 35.9668 378.041 36.2987L377.979 36.6305L377.585 36.5579V36.2468C377.699 35.6765 378.031 35.3447 378.622 35.4484C378.755 35.4578 378.884 35.4988 378.998 35.5679C379.112 35.6369 379.208 35.7321 379.277 35.8456C379.347 35.9591 379.389 36.0876 379.4 36.2204C379.41 36.3533 379.389 36.4868 379.337 36.6097Z" fill="#263238"/>
<path d="M381.401 37.0246V37.1179C381.385 37.2821 381.317 37.437 381.207 37.56C381.097 37.683 380.951 37.7679 380.789 37.8023C380.929 37.8939 381.035 38.0285 381.091 38.1857C381.147 38.3429 381.15 38.5141 381.1 38.6733L381.048 38.9637C380.934 39.5444 380.592 39.8658 380.011 39.7621C379.431 39.6584 379.234 39.2229 379.348 38.6422V38.383L379.742 38.4556L379.68 38.7459C379.617 39.0881 379.68 39.3162 380.022 39.3681C380.364 39.4199 380.499 39.254 380.571 38.8704L380.634 38.58C380.696 38.2171 380.634 38.0097 380.26 37.9371H380.032L380.105 37.5638H380.354C380.419 37.5757 380.486 37.5735 380.55 37.5574C380.615 37.5413 380.675 37.5116 380.727 37.4704C380.779 37.4292 380.822 37.3774 380.852 37.3184C380.882 37.2594 380.9 37.1946 380.903 37.1283V36.952C380.976 36.5683 380.903 36.3402 380.571 36.2884C380.24 36.2365 380.084 36.4128 380.022 36.755V36.9416L379.628 36.869V36.6928C379.732 36.1224 380.074 35.801 380.665 35.9047C381.256 36.0084 381.515 36.4232 381.401 37.0246Z" fill="#263238"/>
<path d="M382.169 37.4392L382.065 37.9681L381.661 37.8851L381.764 37.3666L382.169 37.4392ZM381.775 39.5131L381.671 40.042L381.267 39.959L381.37 39.4405L381.775 39.5131Z" fill="#263238"/>
<path d="M382.957 37.9474C383.028 37.8572 383.123 37.7895 383.232 37.7527C383.341 37.7159 383.458 37.7115 383.569 37.74C384.056 37.8333 384.201 38.2273 384.097 38.7769L383.963 39.5132C383.849 40.0939 383.506 40.4153 382.926 40.3012C382.345 40.1872 382.158 39.7724 382.262 39.1917L382.314 38.9325L382.708 39.0154L382.656 39.2954C382.584 39.6272 382.656 39.8657 382.988 39.9176C383.32 39.9694 383.475 39.8035 383.538 39.4613L383.672 38.7251C383.745 38.3933 383.672 38.1548 383.341 38.1029C383.286 38.0892 383.229 38.0867 383.174 38.0956C383.118 38.1045 383.065 38.1246 383.017 38.1546C382.97 38.1847 382.929 38.2241 382.897 38.2705C382.865 38.3168 382.843 38.3692 382.832 38.4244V38.5073L382.438 38.4347L382.936 36.3608L384.429 36.6408L384.357 37.0141L383.247 36.8067L382.957 37.9474Z" fill="#263238"/>
<path d="M386.43 37.9577V38.0614L386.036 37.9888V37.8955C386.098 37.5533 386.036 37.3252 385.683 37.2733C385.331 37.2215 385.186 37.3874 385.113 37.7918L384.947 38.6317C385.017 38.5159 385.122 38.426 385.248 38.3755C385.373 38.325 385.511 38.3166 385.642 38.3518C386.119 38.4451 386.274 38.8287 386.171 39.3887L386.057 39.959C386.052 40.0837 386.021 40.2058 385.963 40.3166C385.906 40.4274 385.825 40.524 385.725 40.5994C385.626 40.6749 385.511 40.7273 385.389 40.7529C385.267 40.7784 385.141 40.7764 385.02 40.7471C384.895 40.7295 384.777 40.6847 384.672 40.6158C384.567 40.5469 384.479 40.4556 384.413 40.3486C384.348 40.2415 384.307 40.1214 384.294 39.9966C384.28 39.8719 384.294 39.7458 384.335 39.6272L384.709 37.7088C384.823 37.1074 385.165 36.786 385.746 36.9C385.864 36.916 385.978 36.9575 386.079 37.0216C386.18 37.0858 386.266 37.171 386.331 37.2715C386.396 37.3719 386.439 37.4853 386.456 37.6038C386.473 37.7222 386.464 37.843 386.43 37.9577ZM384.864 39.0984L384.75 39.6583C384.688 40.0005 384.75 40.2286 385.092 40.2908C385.434 40.3531 385.58 40.1768 385.652 39.8346L385.756 39.2643C385.818 38.9324 385.756 38.6939 385.414 38.6421C385.072 38.5902 384.926 38.7769 384.864 39.0984Z" fill="#263238"/>
<path d="M427.587 45.9939L426.518 45.7897L426.01 48.4481L427.079 48.6523L427.587 45.9939Z" fill="#263238"/>
<path d="M429.119 45.7115L428.05 45.5074L427.44 48.7058L428.509 48.9098L429.119 45.7115Z" fill="#263238"/>
<path d="M430.609 45.5912L429.539 45.3872L428.857 48.9624L429.927 49.1665L430.609 45.5912Z" fill="#263238"/>
<path d="M432.17 45.2145L431.101 45.0105L430.292 49.2478L431.362 49.4518L432.17 45.2145Z" fill="#263238"/>
<path d="M444.541 51.8942L438.154 50.681L438.89 46.7717L445.288 47.9953L444.541 51.8942ZM438.569 50.3906L444.251 51.4276L444.863 48.2234L439.18 47.1864L438.569 50.3906Z" fill="#263238"/>
<path d="M443.023 48.3004L439.652 47.6572L439.189 50.0814L442.561 50.7246L443.023 48.3004Z" fill="#263238"/>
<path d="M444.294 50.6622L443.491 50.5066L443.314 51.4212L444.117 51.5768L444.294 50.6622Z" fill="#263238"/>
<path d="M435.965 49.385C435.923 49.3747 435.883 49.3532 435.851 49.3228C435.58 49.0281 435.222 48.8264 434.829 48.7463C434.437 48.6663 434.029 48.712 433.663 48.8769C433.636 48.8937 433.606 48.9049 433.575 48.9098C433.543 48.9147 433.511 48.9132 433.48 48.9055C433.449 48.8978 433.42 48.8839 433.395 48.8647C433.369 48.8456 433.348 48.8215 433.332 48.7939C433.315 48.7668 433.304 48.7366 433.299 48.7051C433.294 48.6736 433.295 48.6414 433.303 48.6105C433.311 48.5795 433.325 48.5505 433.344 48.525C433.363 48.4995 433.387 48.4781 433.415 48.4621C433.867 48.2384 434.379 48.1661 434.876 48.2557C435.373 48.3453 435.827 48.5922 436.173 48.9598C436.196 48.9821 436.214 49.0087 436.226 49.038C436.239 49.0674 436.245 49.099 436.245 49.1309C436.245 49.1628 436.239 49.1944 436.226 49.2238C436.214 49.2532 436.196 49.2798 436.173 49.302C436.147 49.3311 436.115 49.3537 436.079 49.3681C436.043 49.3825 436.004 49.3883 435.965 49.385Z" fill="#263238"/>
<path d="M436.65 48.6697C436.612 48.6793 436.573 48.6793 436.536 48.6697C436.147 48.254 435.639 47.9698 435.081 47.8564C434.524 47.7431 433.945 47.8062 433.425 48.0371C433.398 48.0535 433.367 48.0643 433.336 48.0689C433.305 48.0736 433.273 48.0721 433.242 48.0644C433.211 48.0566 433.182 48.043 433.156 48.024C433.131 48.0051 433.109 47.9814 433.093 47.9542C433.077 47.9269 433.066 47.8967 433.061 47.8653C433.057 47.8339 433.058 47.8019 433.066 47.7711C433.074 47.7403 433.087 47.7113 433.106 47.6857C433.125 47.6602 433.149 47.6387 433.176 47.6223C433.79 47.3311 434.48 47.2405 435.148 47.3633C435.816 47.4862 436.429 47.8162 436.899 48.3067C436.922 48.3289 436.94 48.3555 436.952 48.3849C436.965 48.4143 436.971 48.4459 436.971 48.4778C436.971 48.5097 436.965 48.5413 436.952 48.5707C436.94 48.6001 436.922 48.6267 436.899 48.6489C436.864 48.6762 436.822 48.6927 436.777 48.6964C436.733 48.7 436.689 48.6908 436.65 48.6697Z" fill="#263238"/>
<path d="M437.22 47.8295C437.175 47.8172 437.133 47.7961 437.096 47.7673C436.598 47.2233 435.938 46.8533 435.214 46.7115C434.49 46.5697 433.739 46.6635 433.073 46.9792C433.016 47.0095 432.95 47.0167 432.888 46.9993C432.826 46.9819 432.773 46.9412 432.741 46.8859C432.724 46.8587 432.713 46.8285 432.708 46.797C432.703 46.7655 432.704 46.7334 432.712 46.7024C432.72 46.6715 432.734 46.6424 432.753 46.6169C432.772 46.5914 432.796 46.57 432.824 46.554C433.582 46.1954 434.433 46.0845 435.258 46.2371C436.083 46.3897 436.838 46.7981 437.417 47.4043C437.44 47.4266 437.459 47.4532 437.471 47.4825C437.483 47.5119 437.49 47.5435 437.49 47.5754C437.49 47.6073 437.483 47.6389 437.471 47.6683C437.459 47.6977 437.44 47.7243 437.417 47.7465C437.394 47.7754 437.364 47.798 437.329 47.8125C437.295 47.827 437.258 47.8328 437.22 47.8295Z" fill="#263238"/>
<path d="M435.168 49.6441C435.154 49.7226 435.125 49.7977 435.082 49.8649C435.039 49.9321 434.983 49.99 434.917 50.0354C434.851 50.0807 434.777 50.1126 434.699 50.1291C434.621 50.1456 434.541 50.1464 434.462 50.1314C434.303 50.1012 434.162 50.0088 434.071 49.8746C433.979 49.7404 433.945 49.5754 433.975 49.4159C434.005 49.2564 434.098 49.1155 434.232 49.0241C434.366 48.9327 434.531 48.8983 434.691 48.9286C434.769 48.9434 434.844 48.9738 434.911 49.018C434.978 49.0622 435.035 49.1193 435.08 49.186C435.124 49.2526 435.155 49.3275 435.17 49.4061C435.185 49.4848 435.184 49.5657 435.168 49.6441Z" fill="#263238"/>
<path d="M429.897 104.349L373.63 93.616C370.626 93.043 367.726 95.0137 367.153 98.0177L358.143 145.249C357.57 148.253 359.541 151.153 362.545 151.726L418.811 162.46C421.815 163.033 424.715 161.062 425.288 158.058L434.298 110.826C434.871 107.822 432.901 104.922 429.897 104.349Z" fill="white" stroke="#263238" stroke-miterlimit="10"/>
<path d="M377.772 119.493C378.073 119.133 378.468 118.865 378.913 118.718C379.359 118.571 379.836 118.552 380.292 118.663C382.262 119.037 382.864 120.654 382.438 122.811L381.868 125.808C381.422 128.151 380.012 129.468 377.668 129.022C375.325 128.577 374.558 126.834 374.972 124.491L375.169 123.454L376.766 123.755L376.549 124.895C376.289 126.275 376.694 127.218 377.917 127.446C379.141 127.674 379.877 126.959 380.136 125.58L380.707 122.604C380.976 121.225 380.562 120.281 379.338 120.053C379.116 119.993 378.883 119.98 378.656 120.015C378.428 120.049 378.21 120.13 378.015 120.253C377.821 120.375 377.653 120.537 377.524 120.728C377.395 120.918 377.306 121.133 377.264 121.359L377.191 121.712L375.595 121.411L377.668 112.97L383.714 114.121L383.424 115.656L378.913 114.795L377.772 119.493Z" fill="#263238"/>
<path d="M391.895 119.534V119.825L390.298 119.514L390.371 119.12C390.641 117.74 390.226 116.828 388.971 116.589C387.716 116.351 386.897 117.066 386.638 118.663L385.985 122.106C386.258 121.633 386.678 121.262 387.182 121.05C387.686 120.838 388.245 120.798 388.774 120.934C390.744 121.308 391.346 122.894 390.92 125.082L390.485 127.405C390.039 129.748 388.577 131.055 386.244 130.609C383.911 130.163 383.009 128.4 383.454 126.057L384.948 118.238C385.404 115.812 386.793 114.505 389.22 114.972C391.646 115.438 392.341 117.191 391.895 119.534ZM385.528 124.273L385.093 126.565C384.823 127.944 385.238 128.888 386.482 129.126C387.727 129.365 388.463 128.639 388.722 127.26L389.158 124.958C389.427 123.578 388.992 122.635 387.768 122.407C386.545 122.179 385.839 122.894 385.528 124.273Z" fill="#263238"/>
<path d="M400.419 121.163L400.367 121.453L398.76 121.142L398.842 120.748C399.102 119.369 398.687 118.456 397.443 118.218C396.198 117.979 395.421 118.695 395.109 120.292L394.446 123.724C394.723 123.255 395.144 122.888 395.647 122.679C396.15 122.469 396.707 122.429 397.235 122.563C399.205 122.936 399.817 124.522 399.392 126.71L398.946 129.023C398.5 131.366 397.049 132.683 394.705 132.237C392.362 131.791 391.47 130.029 391.916 127.685L393.409 119.981C393.875 117.554 395.255 116.248 397.691 116.714C400.128 117.181 400.865 118.819 400.419 121.163ZM394.041 125.891L393.606 128.193C393.347 129.572 393.751 130.516 395.006 130.755C396.26 130.993 396.976 130.267 397.246 128.888L397.681 126.586C397.94 125.207 397.515 124.263 396.281 124.025C395.047 123.786 394.311 124.512 394.041 125.891Z" fill="#263238"/>
<path d="M408.932 122.811L407.439 130.63C406.972 133.056 405.593 134.384 403.135 133.917C400.678 133.45 399.962 131.739 400.408 129.406L400.47 129.116L402.067 129.417L401.984 129.821C401.725 131.2 402.161 132.123 403.384 132.351C404.608 132.579 405.458 131.884 405.738 130.277L406.391 126.845C406.116 127.312 405.695 127.676 405.193 127.882C404.692 128.088 404.137 128.124 403.612 127.986C401.642 127.612 401.03 126.046 401.456 123.838L401.901 121.494C402.347 119.151 403.778 117.855 406.143 118.3C408.507 118.746 409.378 120.468 408.932 122.811ZM403.602 121.702L403.167 124.004C402.907 125.383 403.332 126.326 404.566 126.565C405.8 126.803 406.537 126.078 406.796 124.698L407.242 122.396C407.511 120.996 407.097 120.074 405.842 119.835C404.587 119.597 403.872 120.302 403.602 121.702Z" fill="#263238"/>
<path d="M417.611 124.398L417.518 124.885C417.228 126.441 416.481 127.467 415.164 127.706C416.346 128.442 416.595 129.78 416.305 131.273L416.087 132.413C415.631 134.778 414.127 136.012 411.742 135.524C409.357 135.037 408.403 133.367 408.86 131.003L409.077 129.863C409.368 128.307 410.114 127.239 411.473 126.959C410.311 126.244 410 125.03 410.301 123.475L410.384 122.988C410.84 120.623 412.354 119.441 414.729 119.877C417.103 120.312 418.068 122.054 417.611 124.398ZM412.064 123.361L411.929 124.097C411.639 125.59 412.24 126.389 413.443 126.617C414.646 126.845 415.517 126.327 415.776 124.833L415.911 124.128C416.212 122.552 415.631 121.691 414.418 121.463C413.204 121.235 412.365 121.805 412.064 123.392V123.361ZM410.799 129.987L410.55 131.283C410.249 132.859 410.809 133.741 412.033 133.969C413.256 134.197 414.107 133.596 414.407 132.019L414.656 130.723C414.936 129.24 414.418 128.39 413.153 128.152C411.888 127.913 411.089 128.535 410.799 130.018V129.987Z" fill="#263238"/>
<path d="M362.374 165.098L415.32 175.198" stroke="#263238" stroke-miterlimit="10"/>
<path d="M360.403 175.426L413.34 185.526" stroke="#263238" stroke-miterlimit="10"/>
<path d="M448.222 126.181L461.028 124.211" stroke="#263238" stroke-miterlimit="10"/>
<path d="M446.252 140.958L453.148 142.928" stroke="#263238" stroke-miterlimit="10"/>
<path d="M442.312 153.764L455.118 162.63" stroke="#263238" stroke-miterlimit="10"/>
<path d="M325.458 150.778C326.124 150.778 326.762 150.513 327.233 150.043C327.703 149.572 327.968 148.934 327.968 148.268V127.529C327.968 126.864 327.703 126.226 327.233 125.755C326.762 125.284 326.124 125.02 325.458 125.02H325.354V116.911C325.353 115.596 325.093 114.294 324.588 113.08C324.083 111.866 323.344 110.763 322.413 109.835C321.481 108.906 320.376 108.171 319.16 107.67C317.945 107.169 316.642 106.912 315.327 106.915H96.531C93.8771 106.915 91.3319 107.969 89.4553 109.846C87.5787 111.722 86.5244 114.268 86.5244 116.922V268.078C86.5272 270.73 87.5826 273.272 89.4589 275.147C91.3352 277.021 93.8789 278.074 96.531 278.074H315.327C317.979 278.074 320.523 277.021 322.399 275.147C324.276 273.272 325.331 270.73 325.334 268.078V213.845H325.437C326.103 213.845 326.741 213.581 327.212 213.11C327.682 212.64 327.947 212.001 327.947 211.336V190.597C327.947 189.931 327.682 189.293 327.212 188.822C326.741 188.352 326.103 188.087 325.437 188.087H325.334V185.464H325.437C326.103 185.464 326.741 185.199 327.212 184.729C327.682 184.258 327.947 183.62 327.947 182.954V162.215C327.947 161.55 327.682 160.912 327.212 160.441C326.741 159.97 326.103 159.706 325.437 159.706H325.334V150.778H325.458Z" fill="#263238"/>
<path d="M316.437 113.582H95.4731V271.406H316.437V113.582Z" fill="#3D4435" stroke="#263238" stroke-miterlimit="10"/>
<path d="M268.105 133.876H144.532V233.122H268.105V133.876Z" fill="#E3E3E3" stroke="#263238" stroke-miterlimit="10"/>
<path d="M191.029 205.622V206.244H189.515V208.453H191.371V209.075H188.82V202.853H191.371V203.475H189.515V205.601L191.029 205.622Z" fill="#B2B2B2"/>
<path d="M192.625 209.075H192.003V202.853H192.874L194.315 207.333V202.853H194.927V209.075H194.212L192.625 204.056V209.075Z" fill="#B2B2B2"/>
<path d="M196.534 209.075V203.496H195.383V202.874H198.359V203.496H197.219V209.075H196.534Z" fill="#B2B2B2"/>
<path d="M201.035 205.622V206.244H199.521V208.453H201.377V209.075H198.826V202.853H201.377V203.475H199.521V205.601L201.035 205.622Z" fill="#B2B2B2"/>
<path d="M203.399 202.874C204.374 202.874 204.789 203.361 204.789 204.284V204.792C204.789 205.477 204.55 205.902 204.011 206.068C204.581 206.244 204.799 206.7 204.799 207.364V208.328C204.773 208.584 204.816 208.842 204.923 209.075H204.218C204.12 208.839 204.08 208.583 204.104 208.328V207.354C204.104 206.649 203.772 206.431 203.202 206.431H202.715V209.075H202.02V202.853L203.399 202.874ZM203.223 205.798C203.772 205.798 204.104 205.622 204.104 204.948V204.346C204.104 203.797 203.897 203.496 203.389 203.496H202.715V205.798H203.223Z" fill="#B2B2B2"/>
<path d="M209.631 204.367V204.927H208.967V204.336C208.967 203.776 208.749 203.434 208.241 203.434C207.733 203.434 207.515 203.776 207.515 204.336V207.613C207.515 208.173 207.744 208.515 208.241 208.515C208.739 208.515 208.967 208.173 208.967 207.613V206.804H209.631V207.582C209.631 208.515 209.185 209.137 208.221 209.137C207.256 209.137 206.831 208.515 206.831 207.582V204.367C206.831 203.424 207.277 202.812 208.221 202.812C209.164 202.812 209.631 203.424 209.631 204.367Z" fill="#B2B2B2"/>
<path d="M210.201 204.367C210.201 203.424 210.668 202.812 211.622 202.812C211.824 202.799 212.027 202.831 212.215 202.907C212.403 202.982 212.572 203.099 212.709 203.248C212.846 203.397 212.948 203.575 213.008 203.769C213.067 203.962 213.083 204.167 213.053 204.367V207.582C213.084 207.783 213.07 207.988 213.012 208.182C212.954 208.377 212.853 208.556 212.717 208.707C212.581 208.858 212.413 208.977 212.225 209.055C212.038 209.133 211.835 209.168 211.632 209.158C210.678 209.158 210.212 208.536 210.212 207.603L210.201 204.367ZM210.886 207.613C210.886 208.183 211.124 208.515 211.622 208.515C212.12 208.515 212.358 208.183 212.358 207.613V204.336C212.358 203.776 212.13 203.434 211.622 203.434C211.114 203.434 210.886 203.776 210.886 204.336V207.613Z" fill="#B2B2B2"/>
<path d="M215.158 202.874C216.122 202.874 216.568 203.455 216.568 204.409V207.52C216.568 208.474 216.122 209.054 215.158 209.054H213.706V202.833L215.158 202.874ZM215.158 208.453C215.656 208.453 215.894 208.142 215.894 207.571V204.378C215.894 203.807 215.656 203.496 215.147 203.496H214.411V208.453H215.158Z" fill="#B2B2B2"/>
<path d="M219.42 205.622V206.244H217.906V208.453H219.773V209.075H217.211V202.853H219.773V203.475H217.906V205.601L219.42 205.622Z" fill="#B2B2B2"/>
<path d="M258.347 166.653H154.071V178.423H258.347V166.653Z" fill="white" stroke="#263238" stroke-miterlimit="10"/>
<path d="M258.347 185.319H154.071V197.088H258.347V185.319Z" fill="white" stroke="#263238" stroke-miterlimit="10"/>
<path d="M220.944 211.865H211.104V223.634H220.944V211.865Z" fill="white" stroke="#263238" stroke-miterlimit="10"/>
<path d="M208.408 211.865H198.567V223.634H208.408V211.865Z" fill="white" stroke="#263238" stroke-miterlimit="10"/>
<path d="M195.881 211.865H186.041V223.634H195.881V211.865Z" fill="white" stroke="#263238" stroke-miterlimit="10"/>
<path d="M183.355 211.865H173.96V223.634H183.355V211.865Z" fill="white" stroke="#263238" stroke-miterlimit="10"/>
<path d="M233.834 211.865H223.63V223.634H233.834V211.865Z" fill="white" stroke="#263238" stroke-miterlimit="10"/>
<path d="M190.064 173.974C190.064 174.534 190.282 174.866 190.79 174.866C191.298 174.866 191.505 174.534 191.505 173.974V169.225H192.158V173.902C192.158 174.845 191.723 175.478 190.759 175.478C189.794 175.478 189.379 174.845 189.379 173.902V169.194H190.064V173.974Z" fill="#B2B2B2"/>
<path d="M195.529 170.718V170.884H194.865V170.677C194.865 170.127 194.658 169.795 194.16 169.795C193.662 169.795 193.455 170.127 193.455 170.677C193.455 172.066 195.529 172.201 195.529 173.943C195.529 174.887 195.073 175.499 194.119 175.499C193.165 175.499 192.729 174.887 192.729 173.943V173.591H193.382V173.985C193.382 174.534 193.61 174.866 194.108 174.866C194.606 174.866 194.834 174.534 194.834 173.985C194.834 172.595 192.76 172.46 192.76 170.718C192.76 169.754 193.196 169.163 194.129 169.163C195.062 169.163 195.529 169.754 195.529 170.718Z" fill="#B2B2B2"/>
<path d="M198.349 171.973V172.595H196.825V174.804H198.692V175.436H196.141V169.215H198.692V169.847H196.825V171.921L198.349 171.973Z" fill="#B2B2B2"/>
<path d="M200.713 169.225C201.688 169.225 202.092 169.723 202.092 170.646V171.154C202.092 171.838 201.854 172.263 201.325 172.429C201.895 172.595 202.103 173.062 202.103 173.725V174.69C202.084 174.945 202.126 175.201 202.227 175.436H201.532C201.429 175.198 201.386 174.938 201.408 174.679V173.705C201.408 172.999 201.087 172.782 200.506 172.782H200.018V175.436H199.324V169.215L200.713 169.225ZM200.537 172.149C201.087 172.149 201.408 171.973 201.408 171.299V170.708C201.408 170.148 201.211 169.857 200.692 169.857H200.018V172.149H200.537Z" fill="#B2B2B2"/>
<path d="M204.809 175.436H204.187V169.215H205.068L206.499 173.705V169.215H207.111V175.436H206.448L204.861 170.417L204.809 175.436Z" fill="#B2B2B2"/>
<path d="M208.522 174.182L208.283 175.436H207.64L208.833 169.215H209.87L211.052 175.436H210.367L210.118 174.182H208.522ZM208.615 173.59H209.994L209.299 170.003L208.615 173.59Z" fill="#B2B2B2"/>
<path d="M213.851 175.426H213.188L212.151 170.49V175.436H211.549V169.215H212.514L213.551 174.171L214.536 169.215H215.5V175.436H214.847V170.438L213.851 175.426Z" fill="#B2B2B2"/>
<path d="M218.403 171.973V172.595H216.889V174.804H218.756V175.436H216.205V169.215H218.756V169.847H216.889V171.921L218.403 171.973Z" fill="#B2B2B2"/>
<path d="M191.008 190.617L191.951 191.654L191.495 191.986L190.8 190.752L190.106 191.986L189.66 191.654L190.583 190.617L189.214 190.327L189.38 189.788L190.676 190.358L190.52 188.958H191.08L190.935 190.358L192.231 189.798L192.397 190.337L191.008 190.617Z" fill="#B2B2B2"/>
<path d="M194.513 190.617L195.456 191.654L195 191.986L194.305 190.752L193.611 191.986L193.154 191.654L194.088 190.617L192.719 190.327L192.885 189.788L194.181 190.358L194.015 188.958H194.585L194.43 190.358L195.726 189.798L195.902 190.337L194.513 190.617Z" fill="#B2B2B2"/>
<path d="M198.017 190.617L198.961 191.654L198.505 191.986L197.799 190.752L197.115 191.986L196.659 191.654L197.592 190.617L196.213 190.327L196.389 189.788L197.675 190.358L197.519 188.958H198.09L197.934 190.358L199.23 189.798L199.396 190.337L198.017 190.617Z" fill="#B2B2B2"/>
<path d="M201.522 190.617L202.455 191.654L202.009 191.986L201.304 190.752L200.61 191.986L200.164 191.654L201.097 190.617L199.718 190.327L199.884 189.788L201.18 190.358L201.024 188.958H201.584L201.439 190.358L202.735 189.798L202.901 190.337L201.522 190.617Z" fill="#B2B2B2"/>
<path d="M205.017 190.617L205.96 191.654L205.504 191.986L204.809 190.752L204.114 191.986L203.669 191.654L204.591 190.617L203.223 190.327L203.389 189.788L204.685 190.358L204.519 188.958H205.089L204.944 190.358L206.24 189.798L206.406 190.337L205.017 190.617Z" fill="#B2B2B2"/>
<path d="M208.522 190.617L209.465 191.654L209.009 191.986L208.314 190.752L207.619 191.986L207.163 191.654L208.096 190.617L206.717 190.327L206.894 189.788L208.19 190.358L208.024 188.958H208.594L208.439 190.358L209.735 189.798L209.911 190.337L208.522 190.617Z" fill="#B2B2B2"/>
<path d="M212.026 190.617L212.97 191.654L212.513 191.986L211.808 190.752L211.124 191.986L210.668 191.654L211.601 190.617L210.222 190.327L210.388 189.788L211.684 190.358L211.528 188.958H212.099L211.943 190.358L213.239 189.798L213.405 190.337L212.026 190.617Z" fill="#B2B2B2"/>
<path d="M215.531 190.617L216.464 191.654L216.018 191.986L215.313 190.752L214.618 191.986L214.172 191.654L215.106 190.617L213.727 190.327L213.892 189.788L215.189 190.358L215.033 188.958H215.593L215.448 190.358L216.744 189.798L216.91 190.337L215.531 190.617Z" fill="#B2B2B2"/>
<path d="M216.776 473.279C253.411 473.279 283.11 445.373 283.11 410.948C283.11 376.524 253.411 348.617 216.776 348.617C180.141 348.617 150.442 376.524 150.442 410.948C150.442 445.373 180.141 473.279 216.776 473.279Z" fill="#263238"/>
<path d="M215.376 470.034C252.011 470.034 281.709 442.127 281.709 407.703C281.709 373.278 252.011 345.372 215.376 345.372C178.741 345.372 149.042 373.278 149.042 407.703C149.042 442.127 178.741 470.034 215.376 470.034Z" fill="white" stroke="#263238" stroke-miterlimit="10"/>
<path d="M215.375 461.51C246.994 461.51 272.625 437.42 272.625 407.703C272.625 377.986 246.994 353.896 215.375 353.896C183.757 353.896 158.125 377.986 158.125 407.703C158.125 437.42 183.757 461.51 215.375 461.51Z" fill="white" stroke="#263238" stroke-miterlimit="10"/>
<path d="M231.241 371.482C208.262 371.482 189.628 394.886 189.628 423.765C189.628 442.43 197.395 458.731 209.06 467.991C210.989 468.157 212.939 468.25 214.909 468.25C239.07 468.25 260.13 455.89 271.381 437.536C272.344 433.023 272.824 428.421 272.812 423.806C272.812 394.886 254.219 371.482 231.241 371.482Z" fill="#263238"/>
<path d="M190.115 400.185H163.02V406.666H190.115V400.185Z" fill="white" stroke="#263238" stroke-miterlimit="10"/>
<path d="M224.936 441.912C247.764 441.912 266.269 424.525 266.269 403.078C266.269 381.631 247.764 364.244 224.936 364.244C202.109 364.244 183.604 381.631 183.604 403.078C183.604 424.525 202.109 441.912 224.936 441.912Z" fill="white" stroke="#263238" stroke-miterlimit="10"/>
<path d="M224.936 435.503C243.99 435.503 259.436 420.986 259.436 403.078C259.436 385.17 243.99 370.653 224.936 370.653C205.883 370.653 190.437 385.17 190.437 403.078C190.437 420.986 205.883 435.503 224.936 435.503Z" fill="#263238" stroke="#263238" stroke-miterlimit="10"/>
<path d="M210.481 373.338C210.261 372.796 210.005 372.269 209.714 371.762C206.188 365.634 206.603 357.846 209.268 350.608" stroke="#263238" stroke-miterlimit="10"/>
<path d="M211.031 386.228C211.031 386.228 212.877 379.218 210.481 373.338" stroke="white" stroke-miterlimit="10"/>
<path d="M223.339 371.762C219.824 365.634 220.228 357.846 222.904 350.608" stroke="#263238" stroke-miterlimit="10"/>
<path d="M224.656 386.227C224.656 386.227 226.855 377.88 223.339 371.762" stroke="white" stroke-miterlimit="10"/>
<path d="M237.411 372.581C237.276 372.301 237.131 372.032 236.975 371.762C233.46 365.634 233.864 357.846 236.529 350.608" stroke="#263238" stroke-miterlimit="10"/>
<path d="M238.293 386.228C238.293 386.228 240.304 378.606 237.411 372.581" stroke="white" stroke-miterlimit="10"/>
<path d="M369.395 345.247C369.395 345.247 368.358 345.309 366.377 345.517C364.552 339.295 359.056 320.899 355.448 311.391C351.072 299.839 345.078 283.507 341.117 276.736C337.156 269.965 337.529 265.983 329.959 259.616C322.39 253.249 315.618 256.028 315.618 256.028C315.618 256.028 314.426 251.248 306.856 248.863C299.287 246.478 288.938 251.248 288.938 251.248C288.938 251.248 287.341 248.458 279.771 249.257C277.541 249.53 275.417 250.369 273.602 251.694C271.788 253.018 270.341 254.785 269.402 256.826C269.402 256.826 253.847 225.718 247.895 223.364C241.943 221.01 235.939 226.952 238.335 232.531C240.73 238.109 258.649 269.176 261.034 276.342C263.419 283.507 268.603 295.463 268.603 295.463C268.603 295.463 251.473 283.113 246.298 281.921C241.124 280.728 233.554 279.93 229.168 284.71C224.782 289.49 235.141 290.683 243.509 298.253C251.877 305.822 265.42 323.336 271.787 334.494C278.154 345.651 291.706 347.642 297.71 354.009C301.91 358.499 307.893 364.752 311.066 368.07C309.992 369.158 308.991 370.315 308.07 371.534L321.208 403.793C321.208 403.793 323.997 399.417 335.155 390.655C346.312 381.893 380.957 371.14 380.957 371.14L369.395 345.247Z" fill="#263238" stroke="#263238" stroke-miterlimit="10"/>
<path d="M312.746 362.004C312.746 362.004 303.185 352.049 297.191 345.682C291.198 339.316 277.676 337.314 271.268 326.157C264.859 314.999 251.348 297.485 242.99 289.915C234.632 282.346 224.273 281.153 228.649 276.373C233.025 271.592 240.667 272.412 245.852 273.583C251.037 274.755 268.157 287.126 268.157 287.126C268.157 287.126 262.972 275.18 260.587 268.015C258.202 260.85 240.253 229.772 237.868 224.194C235.483 218.615 241.445 212.642 247.418 215.037C253.391 217.433 268.935 248.489 268.935 248.489C269.872 246.447 271.317 244.68 273.133 243.356C274.948 242.033 277.073 241.197 279.304 240.93C286.874 240.131 288.471 242.921 288.471 242.921C288.471 242.921 298.84 238.14 306.389 240.525C313.938 242.91 315.151 247.701 315.151 247.701C315.151 247.701 321.923 244.912 329.492 251.279C337.062 257.645 336.658 261.648 340.64 268.409C344.622 275.17 350.605 291.512 354.981 303.064C359.357 314.615 366.532 339.305 366.532 339.305L315.131 367.189L312.746 362.004Z" fill="white" stroke="#263238" stroke-miterlimit="10"/>
<path d="M268.935 248.49L282.871 269.208" stroke="#263238" stroke-miterlimit="10"/>
<path d="M288.45 242.921L301.194 262.83" stroke="#263238" stroke-miterlimit="10"/>
<path d="M315.131 247.701L323.893 263.235" stroke="#263238" stroke-miterlimit="10"/>
<path d="M274.275 304.941L276.1 310.229" stroke="#263238" stroke-miterlimit="10"/>
<path d="M268.136 287.126L273.009 301.27" stroke="#263238" stroke-miterlimit="10"/>
<path d="M290.441 273.988L293.624 278.364" stroke="#263238" stroke-miterlimit="10"/>
<path d="M305.176 269.602L308.764 274.382" stroke="#263238" stroke-miterlimit="10"/>
<path d="M324.691 267.217L327.076 274.787" stroke="#263238" stroke-miterlimit="10"/>
<path d="M307.562 363.207C307.562 363.207 316.728 350.463 335.445 344.086C346.258 340.317 357.499 337.91 368.907 336.92L380.459 362.844C380.459 362.844 345.804 373.556 334.647 382.328C323.489 391.101 320.71 395.477 320.71 395.477L307.562 363.207Z" fill="white" stroke="#263238" stroke-miterlimit="10"/>
<path d="M339.033 449.232C339.033 449.232 323.893 411.394 319.911 403.43C315.929 395.467 322.307 391.485 322.307 391.485C322.307 391.485 331.463 379.135 355.365 369.574C379.266 360.013 381.288 359.619 387.22 366.391C393.151 373.162 432.389 449.347 432.389 449.347" fill="white"/>
<path d="M339.033 449.232C339.033 449.232 323.893 411.394 319.911 403.43C315.929 395.467 322.307 391.485 322.307 391.485C322.307 391.485 331.463 379.135 355.365 369.574C379.266 360.013 381.288 359.619 387.22 366.391C393.151 373.162 432.389 449.347 432.389 449.347" stroke="#263238" stroke-miterlimit="10"/>
<path d="M90.3931 409.424C94.5044 401.639 100.893 395.294 108.706 391.236C121.595 384.662 129.973 381.831 142.313 369.657C154.653 357.483 174.987 346.616 183.366 345.123C191.744 343.63 194.534 340.011 190.925 335.904C187.317 331.798 177.445 331.56 168.683 334.525C159.921 337.491 151.791 341.12 151.791 341.12C156.239 332.368 159.195 321.823 163.571 313.04C166.681 306.818 171.773 296.511 174.801 290.227C176.771 286.131 182.64 279.308 179.985 274.828C177.331 270.348 171.078 273.324 167.895 277.597C162.834 284.399 138.082 321.719 138.082 321.719L152.195 291.855C159.34 276.726 162.741 269.508 161.735 271.655C163.809 267.238 167.874 261.285 165.396 256.236C164.834 255.053 163.966 254.044 162.882 253.312C161.797 252.58 160.536 252.152 159.23 252.074C157.923 251.995 156.62 252.269 155.456 252.866C154.291 253.463 153.309 254.362 152.61 255.468C149.167 261.068 122.86 310.852 122.86 310.852C122.86 310.852 139.327 268.129 141.432 263.214C144.003 257.221 142.469 251.984 138.694 252.015C133.178 252.015 130.575 258.164 128.418 262.312L129.621 260.56C124.436 267.435 121.004 276.456 116.69 283.912C111.678 292.636 106.48 301.246 101.094 309.742C102.131 300.938 105.688 292.684 110.064 285.042C112.708 280.438 123.71 269.125 121.823 263.567C120.205 258.776 108.146 267.777 101.084 277.597C97.2681 282.947 87.2408 297.548 84.4928 307.813C81.7449 318.079 62.4266 353.055 57.2729 362.772C52.1193 372.488 45.9287 389.732 45.9287 389.732L90.3931 409.424Z" fill="#263238" stroke="#263238" stroke-miterlimit="10"/>
<path d="M105.107 400.029C105.107 400.029 95.1732 387.876 76.0726 382.67C65.0483 379.579 53.6828 377.869 42.237 377.579L32.3237 404.104C32.3237 404.104 67.58 412.711 79.2457 420.768C90.9113 428.825 93.9703 433.025 93.9703 433.025L105.107 400.029Z" fill="#263238" stroke="#263238" stroke-miterlimit="10"/>
<path d="M89.0866 404.82C93.198 397.041 99.5823 390.7 107.389 386.642C120.278 380.057 128.667 377.227 140.996 365.063C153.326 352.9 173.671 342.022 182.059 340.519C190.448 339.015 193.227 335.417 189.608 331.3C185.99 327.183 176.128 326.966 167.366 329.931C158.604 332.897 150.453 336.516 150.453 336.516C154.902 327.764 157.857 317.229 162.233 308.435C165.344 302.214 170.446 291.917 173.463 285.623C175.433 281.527 181.303 274.703 178.648 270.234C175.993 265.765 169.751 268.72 166.567 273.003C161.507 279.805 136.755 317.115 136.755 317.115C141.449 307.16 146.15 297.209 150.858 287.261C158.002 272.132 161.414 264.915 160.398 267.051C162.472 262.644 166.547 256.733 164.068 251.642C163.507 250.459 162.638 249.449 161.553 248.716C160.468 247.984 159.207 247.555 157.9 247.476C156.593 247.396 155.289 247.669 154.124 248.265C152.958 248.861 151.973 249.758 151.272 250.864C147.83 256.474 121.522 306.258 121.522 306.258C121.522 306.258 137.989 263.525 140.094 258.62C142.666 252.616 141.131 247.39 137.357 247.421C131.84 247.421 129.237 253.56 127.08 257.718L128.283 255.966C123.099 262.83 119.666 271.862 115.353 279.318C110.32 288.028 105.108 296.635 99.7154 305.138C100.752 296.334 104.309 288.09 108.685 280.448C111.329 275.844 122.331 264.531 120.454 258.963C118.837 254.182 106.767 263.173 99.7154 273.003C95.889 278.354 85.8721 292.943 83.1242 303.22C80.3763 313.496 61.0579 348.451 55.9043 358.178C50.7506 367.904 44.5601 385.139 44.5601 385.139L89.0866 404.82Z" fill="white" stroke="#263238" stroke-miterlimit="10"/>
<path d="M121.585 306.268L116.825 315.881" stroke="#263238" stroke-miterlimit="10"/>
<path d="M136.817 317.125L133.105 321.937" stroke="#263238" stroke-miterlimit="10"/>
<path d="M150.474 336.516L145.704 343.463" stroke="#263238" stroke-miterlimit="10"/>
<path d="M125.816 331.953L125.432 336.091" stroke="#263238" stroke-miterlimit="10"/>
<path d="M113.932 324.415L113.952 328.407" stroke="#263238" stroke-miterlimit="10"/>
<path d="M96.4492 316.088L97.4136 322.88" stroke="#263238" stroke-miterlimit="10"/>
<path d="M103.791 395.436C103.791 395.436 93.8567 383.282 74.7561 378.077C63.7413 374.992 52.3864 373.286 40.9515 372.996L31.0176 399.542C31.0176 399.542 66.2738 408.138 77.9395 416.195C89.6052 424.252 92.6642 428.462 92.6642 428.462L103.791 395.436Z" fill="white" stroke="#263238" stroke-miterlimit="10"/>
<path d="M87.9877 452.841C87.9877 452.841 90.466 444.545 93.9501 436.343C97.4343 428.141 90.8393 424.563 90.8393 424.563C90.8393 424.563 80.926 412.804 56.4851 404.737C32.0443 396.669 30.0326 396.389 24.4849 403.513C18.9372 410.637 1.13281 453.484 1.13281 453.484" fill="white"/>
<path d="M87.9877 452.841C87.9877 452.841 90.466 444.545 93.9501 436.343C97.4343 428.141 90.8393 424.563 90.8393 424.563C90.8393 424.563 80.926 412.804 56.4851 404.737C32.0443 396.669 30.0326 396.389 24.4849 403.513C18.9372 410.637 1.13281 453.484 1.13281 453.484" stroke="#263238" stroke-miterlimit="10"/>
</svg>
