<svg width="120" height="120" viewBox="0 0 120 120" fill="none" xmlns="http://www.w3.org/2000/svg">
<path d="M41.8999 59.9999L53.9499 72.0999L78.0999 47.8999" stroke="#677359" stroke-width="2" stroke-linecap="round" stroke-linejoin="round"/>
<path d="M53.7499 12.2501C57.1999 9.3001 62.8499 9.3001 66.3499 12.2501L74.2499 19.0501C75.7499 20.3501 78.5499 21.4001 80.5499 21.4001H89.0499C94.3499 21.4001 98.6999 25.7501 98.6999 31.0501V39.5501C98.6999 41.5001 99.7499 44.3501 101.05 45.8501L107.85 53.7501C110.8 57.2001 110.8 62.8501 107.85 66.3501L101.05 74.2501C99.7499 75.7501 98.6999 78.5501 98.6999 80.5501V89.0501C98.6999 94.3501 94.3499 98.7001 89.0499 98.7001H80.5499C78.5999 98.7001 75.7499 99.7501 74.2499 101.05L66.3499 107.85C62.8999 110.8 57.2499 110.8 53.7499 107.85L45.8499 101.05C44.3499 99.7501 41.5499 98.7001 39.5499 98.7001H30.8999C25.5999 98.7001 21.2499 94.3501 21.2499 89.0501V80.5001C21.2499 78.5501 20.1999 75.7501 18.9499 74.2501L12.1999 66.3001C9.2999 62.8501 9.2999 57.2501 12.1999 53.8001L18.9499 45.8501C20.1999 44.3501 21.2499 41.5501 21.2499 39.6001V31.0001C21.2499 25.7001 25.5999 21.3501 30.8999 21.3501H39.5499C41.4999 21.3501 44.3499 20.3001 45.8499 19.0001L53.7499 12.2501Z" stroke="#677359" stroke-width="2" stroke-linecap="round" stroke-linejoin="round"/>
</svg>
